<svg width="32" height="32" viewBox="0 0 32 32" fill="none" xmlns="http://www.w3.org/2000/svg">
<path d="M28.5 13.5C28.5 5 22.5 1 16 1C9.5 1 3.5 5 3.5 13.5C1.75 13.5 1 14.75 1 16C1 17.25 1.75 18.5 3.5 18.5C3.5 21.85 7 26.5 16 26.5C25 26.5 28.5 21.85 28.5 18.5C30.25 18.5 31 17.25 31 16C31 14.75 30.25 13.5 28.5 13.5Z" fill="#FED0AC"/>
<path d="M16.5 7.5C14.5 6 15.5 4 15.5 4C15.5 4 19.5 6.5 23 5.5C23 5.5 21 5 20.5 3.5C20.5 3.5 22.5 4 24 3.5C22 2 19.5 1 16 1C12.5 1 10 2 8 3.5C10 6 12 7.5 16.5 7.5Z" fill="#DBB471"/>
<path opacity="0.5" d="M28 18.7C27.8 17.5 26.35 16.75 24.7 17.1C23.05 17.4 21.85 18.65 22.05 19.85C22.25 21.05 23.7 21.8 25.35 21.45C26.95 21.1 28.15 19.9 28 18.7Z" fill="#FF717F"/>
<path opacity="0.5" d="M7.3 17.05C5.7 16.75 4.2 17.5 4 18.7C3.8 19.9 5 21.15 6.65 21.45C8.3 21.75 9.8 21.05 9.95 19.85C10.15 18.6 8.95 17.4 7.3 17.05" fill="#FF717F"/>
<path d="M13 13.75C13 15.55 11.55 17 9.75 17C7.95 17 6.5 15.55 6.5 13.75C6.5 11.95 7.95 10.5 9.75 10.5C11.55 10.5 13 11.95 13 13.75Z" fill="white"/>
<path d="M9.75 16C10.9926 16 12 14.9926 12 13.75C12 12.5074 10.9926 11.5 9.75 11.5C8.50736 11.5 7.5 12.5074 7.5 13.75C7.5 14.9926 8.50736 16 9.75 16Z" fill="#664E27"/>
<path d="M10.5 13.75C10.5 14.15 10.15 14.5 9.75 14.5C9.35 14.5 9 14.15 9 13.75C9 13.35 9.35 13 9.75 13C10.15 13 10.5 13.35 10.5 13.75Z" fill="#231F20"/>
<path d="M25.5 13.75C25.5 15.55 24.05 17 22.25 17C20.45 17 19 15.55 19 13.75C19 11.95 20.45 10.5 22.25 10.5C24.05 10.5 25.5 11.95 25.5 13.75Z" fill="white"/>
<path d="M22.25 16C23.4926 16 24.5 14.9926 24.5 13.75C24.5 12.5074 23.4926 11.5 22.25 11.5C21.0074 11.5 20 12.5074 20 13.75C20 14.9926 21.0074 16 22.25 16Z" fill="#664E27"/>
<path d="M22.25 14.5C22.6642 14.5 23 14.1642 23 13.75C23 13.3358 22.6642 13 22.25 13C21.8358 13 21.5 13.3358 21.5 13.75C21.5 14.1642 21.8358 14.5 22.25 14.5Z" fill="#231F20"/>
<path d="M23.5 21.9C23.5 26.05 20.15 28 16 28C11.85 28 8.5 26.05 8.5 21.9C8.5 17.7 11.9 19.5 16 19.5C20.15 19.5 23.5 17.7 23.5 21.9Z" fill="#61C2FF"/>
<path d="M16 26C17.6569 26 19 24.8807 19 23.5C19 22.1193 17.6569 21 16 21C14.3431 21 13 22.1193 13 23.5C13 24.8807 14.3431 26 16 26Z" fill="#6235A8"/>
<path d="M16 23C12.95 23 10.5 22.65 10.5 25.6C10.5 28.6 12.95 31 16 31C19.05 31 21.5 28.6 21.5 25.65C21.5 22.65 19.05 23 16 23ZM16 29.2C13.85 29.2 11.85 27.75 11.85 25.65C11.85 23.55 13.85 24.05 16 24.05C18.15 24.05 20.15 23.55 20.15 25.65C20.15 27.75 18.15 29.2 16 29.2" fill="#FBBF67"/>
<path d="M18 24.4C18 24.7 17.75 25 17.45 25H14.55C14.25 25 14 24.75 14 24.4V23.05C14 22.75 14.25 22.45 14.55 22.45H17.45C17.75 22.45 18 22.7 18 23.05V24.4Z" fill="#42ADE2"/>
<path d="M16 19C13.9 19 12.85 17.5 13.9 17.5H18.1C19.15 17.5 18.1 19 16 19Z" fill="#E0A372"/>
</svg>
