<svg width="32" height="32" viewBox="0 0 32 32" fill="none" xmlns="http://www.w3.org/2000/svg">
<g clip-path="url(#clip0)">
<path d="M22.685 27.33L6.6925 30.6125C6.49961 30.6522 6.30077 30.6536 6.10737 30.6164C5.91397 30.5792 5.7298 30.5042 5.5654 30.3958C5.401 30.2874 5.2596 30.1476 5.14928 29.9844C5.03896 29.8213 4.9619 29.638 4.9225 29.445L1.68 13.65C1.64026 13.4571 1.63894 13.2583 1.67613 13.0649C1.71332 12.8715 1.78827 12.6873 1.89671 12.5229C2.00515 12.3585 2.14495 12.2171 2.30809 12.1068C2.47124 11.9965 2.65454 11.9194 2.8475 11.88L18.84 8.5975L22.685 27.33V27.33Z" fill="#424242"/>
<path d="M22.8125 24.89L6.2175 28.295C6.02461 28.3347 5.82578 28.3361 5.63237 28.2989C5.43897 28.2617 5.2548 28.1867 5.0904 28.0783C4.926 27.9699 4.7846 27.8301 4.67428 27.6669C4.56396 27.5038 4.4869 27.3205 4.4475 27.1275L1.0875 10.755C1.04776 10.5621 1.04645 10.3633 1.08363 10.1699C1.12082 9.97647 1.19577 9.7923 1.30421 9.6279C1.41265 9.4635 1.55245 9.3221 1.71559 9.21178C1.87874 9.10146 2.06204 9.0244 2.255 8.985L18.85 5.58L22.8125 24.89Z" fill="url(#paint0_linear)"/>
<path opacity="0.2" d="M18.265 6.465L21.93 24.3175C21.79 24.375 21.67 24.4725 21.585 24.6C21.475 24.765 21.4375 24.97 21.4775 25.1625L21.8025 26.745L6.285 29.93C6.25 29.9375 6.2125 29.94 6.175 29.94C5.9525 29.94 5.7625 29.7975 5.7225 29.6025L5.2475 27.285L2.3525 13.1875L1.7575 10.295C1.71 10.06 1.8825 9.8275 2.145 9.7725L18.265 6.465V6.465ZM18.85 5.58L1.995 9.0375C1.3275 9.175 0.892501 9.805 1.025 10.445L1.62 13.3375L4.515 27.4375L4.99 29.755C5.105 30.31 5.6075 30.6925 6.1775 30.6925C6.2625 30.6925 6.35 30.685 6.4375 30.665L22.69 27.33L22.215 25.0125L22.8175 24.89L18.85 5.58V5.58Z" fill="#424242"/>
<path d="M21.76 26.915L6.535 30.04C6.31132 30.0851 6.07887 30.04 5.88829 29.9145C5.69771 29.789 5.56444 29.5933 5.5175 29.37L5.5075 29.32C5.46239 29.0963 5.50749 28.8639 5.63299 28.6733C5.75848 28.4827 5.95419 28.3494 6.1775 28.3025L21.4025 25.1775L21.76 26.915V26.915Z" fill="url(#paint1_linear)"/>
<path d="M-0.449989 8.7347L1.9671 8.23849L6.72401 31.4103L4.30691 31.9065L-0.449989 8.7347Z" fill="#424242"/>
<path d="M24.4875 25.35L8.19 23.7625C7.79421 23.7239 7.42994 23.5298 7.17726 23.2227C6.92458 22.9156 6.80417 22.5208 6.8425 22.125L8.4175 5.9425C8.45608 5.54672 8.65024 5.18245 8.9573 4.92976C9.26436 4.67708 9.65919 4.55667 10.055 4.595L26.3525 6.1825L24.4875 25.35Z" fill="#424242"/>
<path d="M25.26 22.965L8.35 21.3175C7.95422 21.2789 7.58995 21.0848 7.33727 20.7777C7.08459 20.4706 6.96417 20.0758 7.0025 19.68L8.635 2.9075C8.67358 2.51171 8.86774 2.14744 9.1748 1.89476C9.48186 1.64208 9.87669 1.52167 10.2725 1.56L27.1825 3.2075L25.26 22.965V22.965Z" fill="url(#paint2_linear)"/>
<path opacity="0.2" d="M9.96 2.36501C9.9775 2.36501 9.995 2.36501 10.0125 2.36751L26.4225 3.96501L24.645 22.215C24.495 22.23 24.3525 22.2875 24.2325 22.385C24.075 22.515 23.9775 22.7 23.9575 22.9025L23.8 24.5125L8.005 22.975C7.875 22.9625 7.7575 22.9025 7.675 22.8075C7.6325 22.7575 7.5625 22.65 7.575 22.505L7.805 20.135L9.21 5.70751L9.5 2.74751C9.52 2.53001 9.7175 2.36501 9.96 2.36501ZM9.96 1.60001C9.3325 1.60001 8.7975 2.05751 8.74 2.67251L8.45 5.63251L7.045 20.06L6.815 22.43C6.75 23.085 7.25 23.67 7.93 23.735L24.4875 25.3475L24.7175 22.9775L25.3325 23.0375L27.2575 3.28001L10.085 1.60751C10.0425 1.60251 10 1.60001 9.96 1.60001V1.60001Z" fill="#424242"/>
<path d="M23.725 24.675L8.2175 23.165C7.7425 23.1175 7.3925 22.6925 7.4375 22.2175L7.4425 22.1675C7.49 21.6925 7.915 21.3425 8.39 21.3875L23.8975 22.8975L23.725 24.675V24.675Z" fill="url(#paint3_linear)"/>
<path d="M7.83237 0.588379L10.2957 0.828048L7.98887 24.5386L5.5255 24.2989L7.83237 0.588379Z" fill="#424242"/>
<path d="M30.6275 28.9975L15.355 30.35C14.53 30.4225 13.8025 29.8125 13.7275 28.9875L12.33 13.205C12.2955 12.8086 12.4195 12.4148 12.6749 12.1097C12.9303 11.8046 13.2962 11.6133 13.6925 11.5775L28.965 10.225L30.6275 28.9975V28.9975Z" fill="#424242"/>
<path d="M31 26.6225L15.15 28.025C14.325 28.0975 13.5975 27.4875 13.5225 26.6625L12.075 10.3075C12.0405 9.91113 12.1645 9.51726 12.4199 9.2122C12.6753 8.90713 13.0413 8.71575 13.4375 8.68L29.2875 7.2775L31 26.6225Z" fill="url(#paint4_linear)"/>
<path opacity="0.2" d="M28.605 8.09L30.1875 25.9625C30.0263 26.0154 29.8877 26.1213 29.7942 26.2628C29.7007 26.4044 29.6578 26.5735 29.6725 26.7425L29.8125 28.3175L14.955 29.6325C14.9425 29.6325 14.93 29.635 14.9175 29.635C14.705 29.635 14.525 29.4675 14.505 29.255L14.3 26.9325L13.05 12.805L12.7925 9.9075C12.7725 9.68 12.9425 9.4775 13.17 9.4575L28.605 8.09V8.09ZM29.2875 7.2775L13.105 8.71C12.465 8.7675 11.99 9.3325 12.0475 9.9725L12.305 12.87L13.555 26.9975L13.76 29.32C13.7736 29.4725 13.8171 29.6208 13.8881 29.7565C13.959 29.8922 14.056 30.0126 14.1735 30.1108C14.2909 30.209 14.4266 30.2831 14.5727 30.3288C14.7188 30.3746 14.8725 30.3911 15.025 30.3775L30.63 28.995L30.425 26.6725L31.0025 26.6225L29.2875 7.2775V7.2775Z" fill="#424242"/>
<path d="M29.8025 28.485L15.1725 29.78C14.9607 29.7985 14.7503 29.7324 14.5872 29.596C14.4241 29.4596 14.3217 29.2642 14.3025 29.0525L14.29 28.9075C14.2715 28.6957 14.3376 28.4852 14.474 28.3222C14.6104 28.1591 14.8058 28.0567 15.0175 28.0375L29.6475 26.7425L29.8025 28.485V28.485Z" fill="url(#paint5_linear)"/>
<path d="M10.8388 8.13087L13.1597 7.92529L15.2162 31.1419L12.8953 31.3475L10.8388 8.13087Z" fill="#424242"/>
</g>
<defs>
<linearGradient id="paint0_linear" x1="9.82738" y1="7.48041" x2="13.8031" y2="26.847" gradientUnits="userSpaceOnUse">
<stop offset="0.008" stop-color="#FF9800"/>
<stop offset="1" stop-color="#EF6C00"/>
</linearGradient>
<linearGradient id="paint1_linear" x1="5.51534" y1="29.3447" x2="21.5833" y2="26.0461" gradientUnits="userSpaceOnUse">
<stop offset="0.01" stop-color="#BDBDBD"/>
<stop offset="0.987" stop-color="#F5F5F5"/>
</linearGradient>
<linearGradient id="paint2_linear" x1="17.9766" y1="2.36053" x2="16.0469" y2="22.1764" gradientUnits="userSpaceOnUse">
<stop offset="0.008" stop-color="#4480F7"/>
<stop offset="1" stop-color="#315DB3"/>
</linearGradient>
<linearGradient id="paint3_linear" x1="7.44138" y1="22.1927" x2="23.8123" y2="23.7865" gradientUnits="userSpaceOnUse">
<stop offset="0.01" stop-color="#BDBDBD"/>
<stop offset="0.987" stop-color="#F5F5F5"/>
</linearGradient>
<linearGradient id="paint4_linear" x1="20.6186" y1="8.09256" x2="22.3373" y2="27.4961" gradientUnits="userSpaceOnUse">
<stop offset="0.008" stop-color="#66BB6A"/>
<stop offset="1" stop-color="#2E7D32"/>
</linearGradient>
<linearGradient id="paint5_linear" x1="14.2965" y1="28.9813" x2="29.7241" y2="27.6148" gradientUnits="userSpaceOnUse">
<stop offset="0.01" stop-color="#BDBDBD"/>
<stop offset="0.987" stop-color="#F5F5F5"/>
</linearGradient>
<clipPath id="clip0">
<rect width="32" height="32" fill="white"/>
</clipPath>
</defs>
</svg>
