<svg width="32" height="32" viewBox="0 0 32 32" fill="none" xmlns="http://www.w3.org/2000/svg">
<path d="M5.77749 10.33C6.18499 10.89 6.71749 11.3125 7.32249 11.655C9.33999 12.795 11.8 12.555 13.9825 13.195C14.215 13.265 14.4525 13.345 14.6875 13.4125C14.9375 13.485 15.33 13.7425 15.615 13.6225C15.8825 13.4675 15.905 12.9975 15.9975 12.755C16.085 12.525 16.16 12.2875 16.245 12.06C17.035 9.9275 18.6925 8.095 18.9825 5.795C19.07 5.105 19.0475 4.425 18.8425 3.7625C18.6375 3.0975 18.19 2.2225 17.645 1.7625C16.3625 0.680003 14.96 0.395003 13.58 1.1L13.425 1.18C12.8875 1.46 12.4225 1.8475 12.03 2.305C11.61 2.7975 11.4125 3.3175 11.0925 3.8575C10.97 4.06 10.715 4.1875 10.48 4.165C9.85499 4.1 9.31999 3.9475 8.67499 3.9925C8.07249 4.035 7.48499 4.1775 6.93749 4.44C6.88749 4.465 6.83499 4.49 6.78249 4.5175C5.39499 5.205 4.78249 6.5025 4.88749 8.1775C4.92999 8.8875 5.36499 9.7675 5.77749 10.33V10.33Z" fill="#D7598B"/>
<path d="M10.29 21.89C9.9975 20.065 10.44 18.1025 9.7275 16.36C9.5125 15.8375 9.225 15.365 8.8175 14.9775C8.405 14.5875 7.7375 14.1425 7.17 14.0375C5.8275 13.7825 4.72 14.1425 4.0225 15.19L3.945 15.31C3.6775 15.7225 3.5 16.185 3.405 16.6625C3.3025 17.18 3.3725 17.625 3.36 18.1375C3.355 18.3325 3.225 18.5225 3.05 18.6025C2.5825 18.8075 2.1425 18.9125 1.705 19.2C1.2925 19.4725 0.934997 19.8075 0.652497 20.2125L0.574997 20.3275C-0.135003 21.37 -0.0500035 22.53 0.692497 23.6775C1.005 24.165 1.67 24.615 2.185 24.8475C2.7 25.08 3.245 25.1675 3.81 25.1675C5.695 25.17 7.3425 24.02 9.1425 23.6C9.335 23.555 9.535 23.5175 9.73 23.47C9.9375 23.42 10.3175 23.4475 10.47 23.25C10.5975 23.0325 10.4275 22.6925 10.3975 22.48C10.365 22.285 10.3225 22.085 10.29 21.89Z" fill="#D7598B"/>
<path d="M31 11.68L30.895 11.5875C30.525 11.2625 30.095 11.02 29.6325 10.855C29.1375 10.68 28.685 10.6825 28.1825 10.595C27.9925 10.5625 27.8225 10.405 27.77 10.2175C27.635 9.725 27.595 9.2775 27.375 8.7975C27.1675 8.3525 26.89 7.95 26.53 7.61L26.4275 7.5175C25.5 6.6625 24.34 6.5775 23.095 7.1425C22.5675 7.38 22.0275 7.9725 21.72 8.4475C21.415 8.92 21.2475 9.4475 21.165 10.0075C20.8875 11.8725 21.785 13.67 21.935 15.5125C21.95 15.7075 21.9575 15.9125 21.9775 16.11C21.9975 16.3225 21.9125 16.695 22.0875 16.875C22.285 17.03 22.645 16.915 22.8575 16.9125C23.0575 16.9125 23.26 16.9025 23.4575 16.9C25.305 16.8775 27.18 17.6025 29.0125 17.155C29.56 17.02 30.07 16.805 30.5125 16.4575C30.9575 16.1075 31.495 15.5125 31.6825 14.965C32.13 13.675 31.9375 12.5225 31 11.68V11.68Z" fill="#D7598B"/>
<path d="M19.2725 24.595C19.155 24.135 18.97 23.7075 18.675 23.3375C18.3775 22.9625 17.8725 22.5175 17.4125 22.36C16.3225 21.99 15.3575 22.1625 14.655 22.955L14.575 23.0425C14.3068 23.3567 14.1007 23.7189 13.9675 24.11C13.8225 24.5275 13.8275 24.9075 13.755 25.3325C13.7275 25.4925 13.5975 25.6375 13.4425 25.6825C13.03 25.7975 12.65 25.835 12.25 26.025C11.8775 26.2025 11.5375 26.44 11.255 26.745L11.175 26.835C10.4625 27.6175 10.3975 28.5975 10.88 29.64C11.085 30.0825 11.5825 30.535 11.9875 30.79C12.39 31.045 12.835 31.18 13.305 31.2475C14.875 31.4675 16.3825 30.7025 17.935 30.5625C18.1 30.5475 18.2725 30.54 18.44 30.525C18.6175 30.5075 18.93 30.5775 19.0825 30.4275C19.215 30.2625 19.1125 29.96 19.11 29.7775C19.1075 29.61 19.0975 29.44 19.0925 29.275C19.0625 27.7175 19.6625 26.1325 19.2725 24.595V24.595Z" fill="#D7598B"/>
<path d="M29.785 23.6925C29.5225 23.44 29.21 23.25 28.8725 23.11C28.5125 22.965 28.175 22.955 27.8075 22.8725C27.6675 22.8425 27.545 22.72 27.5125 22.58C27.4275 22.2125 27.4125 21.8775 27.2625 21.5175C27.1225 21.18 26.9275 20.8725 26.67 20.6125L26.5975 20.5375C25.9375 19.8775 25.08 19.78 24.1375 20.16C23.74 20.3225 23.3225 20.7425 23.08 21.085C22.84 21.4275 22.7 21.815 22.6225 22.225C22.36 23.5975 22.97 24.9575 23.025 26.33C23.0325 26.4775 23.0325 26.6275 23.035 26.7725C23.045 26.93 22.97 27.2025 23.095 27.345C23.235 27.465 23.5075 27.39 23.665 27.395C23.8125 27.4 23.965 27.4 24.11 27.4025C25.48 27.4425 26.8475 28.0375 28.2175 27.76C28.63 27.6775 29.0125 27.5325 29.3525 27.2875C29.6925 27.0425 30.1075 26.6175 30.265 26.22C30.6375 25.2775 30.5275 24.4175 29.86 23.765L29.785 23.6925V23.6925Z" fill="#D7598B"/>
</svg>
